<svg xmlns="http://www.w3.org/2000/svg" version="1.1" xmlns:xlink="http://www.w3.org/1999/xlink" xmlns:svgjs="http://svgjs.com/svgjs" width="1440" height="560" preserveAspectRatio="none" viewBox="0 0 1440 560">
    <g mask="url(&quot;#SvgjsMask&quot;)" fill="none">
        <rect width="1920" height="1080" x="0" y="0" fill="rgba(0, 0, 0, 1)"></rect>
        <path d="M1110 232L1109 18" stroke-width="6" stroke="url(#SvgjsLinearGradient1)" stroke-linecap="round" class="Up"></path>
        <path d="M1302 324L1301 154" stroke-width="8" stroke="url(#SvgjsLinearGradient1)" stroke-linecap="round" class="Down"></path>
        <path d="M845 60L844 304" stroke-width="8" stroke="url(#SvgjsLinearGradient2)" stroke-linecap="round" class="Up"></path>
        <path d="M877 416L876 622" stroke-width="8" stroke="url(#SvgjsLinearGradient2)" stroke-linecap="round" class="Down"></path>
        <path d="M1085 533L1084 362" stroke-width="10" stroke="url(#SvgjsLinearGradient2)" stroke-linecap="round" class="Up"></path>
        <path d="M273 407L272 695" stroke-width="6" stroke="url(#SvgjsLinearGradient2)" stroke-linecap="round" class="Down"></path>
        <path d="M1249 214L1248 -67" stroke-width="8" stroke="url(#SvgjsLinearGradient1)" stroke-linecap="round" class="Up"></path>
        <path d="M236 157L235 546" stroke-width="10" stroke="url(#SvgjsLinearGradient1)" stroke-linecap="round" class="Down"></path>
        <path d="M1254 130L1253 487" stroke-width="10" stroke="url(#SvgjsLinearGradient2)" stroke-linecap="round" class="Up"></path>
        <path d="M1007 490L1006 283" stroke-width="10" stroke="url(#SvgjsLinearGradient2)" stroke-linecap="round" class="Down"></path>
        <path d="M1297 240L1296 -31" stroke-width="8" stroke="url(#SvgjsLinearGradient2)" stroke-linecap="round" class="Up"></path>
        <path d="M328 472L327 878" stroke-width="6" stroke="url(#SvgjsLinearGradient2)" stroke-linecap="round" class="Down"></path>
        <path d="M1089 267L1088 608" stroke-width="6" stroke="url(#SvgjsLinearGradient1)" stroke-linecap="round" class="Up"></path>
        <path d="M1026 107L1025 -285" stroke-width="6" stroke="url(#SvgjsLinearGradient1)" stroke-linecap="round" class="Down"></path>
        <path d="M114 520L113 735" stroke-width="10" stroke="url(#SvgjsLinearGradient1)" stroke-linecap="round" class="Up"></path>
        <path d="M349 261L348 580" stroke-width="8" stroke="url(#SvgjsLinearGradient1)" stroke-linecap="round" class="Down"></path>
        <path d="M1379 59L1378 270" stroke-width="6" stroke="url(#SvgjsLinearGradient2)" stroke-linecap="round" class="Up"></path>
        <path d="M214 301L213 -38" stroke-width="8" stroke="url(#SvgjsLinearGradient2)" stroke-linecap="round" class="Down"></path>
        <path d="M837 42L836 246" stroke-width="10" stroke="url(#SvgjsLinearGradient1)" stroke-linecap="round" class="Up"></path>
        <path d="M286 340L285 688" stroke-width="10" stroke="url(#SvgjsLinearGradient1)" stroke-linecap="round" class="Down"></path>
        <path d="M862 227L861 556" stroke-width="8" stroke="url(#SvgjsLinearGradient2)" stroke-linecap="round" class="Up"></path>
        <path d="M883 351L882 636" stroke-width="6" stroke="url(#SvgjsLinearGradient2)" stroke-linecap="round" class="Down"></path>
        <path d="M321 44L320 -245" stroke-width="6" stroke="url(#SvgjsLinearGradient2)" stroke-linecap="round" class="Up"></path>
        <path d="M385 67L384 -149" stroke-width="6" stroke="url(#SvgjsLinearGradient2)" stroke-linecap="round" class="Down"></path>
        <path d="M1367 111L1366 -34" stroke-width="8" stroke="url(#SvgjsLinearGradient2)" stroke-linecap="round" class="Up"></path>
        <path d="M258 262L257 533" stroke-width="6" stroke="url(#SvgjsLinearGradient1)" stroke-linecap="round" class="Down"></path>
        <path d="M230 259L229 71" stroke-width="10" stroke="url(#SvgjsLinearGradient1)" stroke-linecap="round" class="Up"></path>
        <path d="M513 485L512 142" stroke-width="8" stroke="url(#SvgjsLinearGradient1)" stroke-linecap="round" class="Down"></path>
        <path d="M1002 381L1001 -7" stroke-width="10" stroke="url(#SvgjsLinearGradient1)" stroke-linecap="round" class="Up"></path>
        <path d="M197 301L196 120" stroke-width="10" stroke="url(#SvgjsLinearGradient1)" stroke-linecap="round" class="Down"></path>
        <path d="M58 534L57 279" stroke-width="10" stroke="url(#SvgjsLinearGradient2)" stroke-linecap="round" class="Up"></path>
        <path d="M1380 450L1379 133" stroke-width="8" stroke="url(#SvgjsLinearGradient2)" stroke-linecap="round" class="Down"></path>
        <path d="M195 553L194 357" stroke-width="6" stroke="url(#SvgjsLinearGradient2)" stroke-linecap="round" class="Up"></path>
        <path d="M435 163L434 -46" stroke-width="10" stroke="url(#SvgjsLinearGradient2)" stroke-linecap="round" class="Down"></path>
        <path d="M946 120L945 270" stroke-width="8" stroke="url(#SvgjsLinearGradient2)" stroke-linecap="round" class="Up"></path>
        <path d="M1281 415L1280 625" stroke-width="8" stroke="url(#SvgjsLinearGradient2)" stroke-linecap="round" class="Down"></path>
    </g>
    <defs>
        <mask id="SvgjsMask">
            <rect width="1920" height="1080" fill="#ffffff"></rect>
        </mask>
        <linearGradient x1="0%" y1="100%" x2="0%" y2="0%" id="SvgjsLinearGradient1">
            <stop stop-color="rgba(255, 142, 0, 0)" offset="0"></stop>
            <stop stop-color="rgba(255, 142, 0, 1)" offset="1"></stop>
        </linearGradient>
        <linearGradient x1="0%" y1="0%" x2="0%" y2="100%" id="SvgjsLinearGradient2">
            <stop stop-color="rgba(255, 142, 0, 0)" offset="0"></stop>
            <stop stop-color="rgba(255, 142, 0, 1)" offset="1"></stop>
        </linearGradient>
    </defs>
    <style>
    .Up {
        stroke-dasharray: 40px 200px;
        stroke-dashoffset: 500px;
        animation: draw 60s linear infinite;
    }

    .Down {
        stroke-dasharray: 20px 200px;
        stroke-dashoffset: 450px;
        animation: draw 50s linear infinite;
    }

    @keyframes draw {
        to {
            stroke-dashoffset: 0px;
        }
    }
    </style>
</svg>